<?xml version="1.0" standalone="no"?>
<!DOCTYPE svg PUBLIC "-//W3C//DTD SVG 20010904//EN"
 "http://www.w3.org/TR/2001/REC-SVG-20010904/DTD/svg10.dtd">
<svg version="1.0" xmlns="http://www.w3.org/2000/svg"
 width="700.000000pt" height="700.000000pt" viewBox="0 0 700.000000 700.000000"
 preserveAspectRatio="xMidYMid meet">
<metadata>
Created by potrace 1.11, written by Peter Selinger 2001-2013
</metadata>
<g transform="translate(0.000000,700.000000) scale(0.100000,-0.100000)"
fill="#000000" stroke="none">
<path d="M4498 5586 c-1 -2 -100 -7 -218 -10 -118 -4 -233 -9 -255 -10 -22 -2
-80 -7 -130 -11 -49 -3 -101 -8 -115 -10 -14 -2 -56 -7 -95 -10 -38 -4 -88
-11 -110 -15 -33 -7 -29 -8 25 -5 244 16 354 19 575 19 254 0 451 -9 603 -29
23 -3 63 -7 90 -11 26 -3 101 -14 167 -25 935 -156 1543 -564 1659 -1114 18
-88 19 -247 2 -345 -32 -176 -106 -353 -224 -531 -102 -154 -174 -242 -336
-406 -44 -46 -78 -83 -74 -83 4 0 13 6 20 13 7 7 60 48 118 92 204 156 432
398 546 581 173 278 228 571 155 826 -91 315 -361 587 -769 775 -53 24 -106
48 -117 53 -80 37 -450 144 -570 164 -16 3 -59 10 -95 16 -97 16 -108 18 -195
29 -185 24 -241 28 -455 36 -96 4 -180 8 -187 10 -6 2 -13 2 -15 1z"/>
<path d="M3480 5510 l-35 -8 43 1 c23 0 42 5 42 9 0 9 1 9 -50 -2z"/>
<path d="M4059 4868 c0 -7 -1 -129 -1 -270 l-1 -258 -46 -1 c-25 -1 -67 -1
-93 -1 l-48 -1 0 -158 0 -159 93 0 94 0 1 -562 c0 -310 1 -569 1 -576 1 -10
41 -12 184 -10 l182 3 0 573 0 572 111 0 110 0 0 158 -1 157 -107 0 c-87 0
-108 3 -110 15 -2 8 -3 131 -2 273 l1 257 -184 0 c-139 0 -183 -3 -184 -12z"/>
<path d="M850 4463 c-193 -145 -400 -348 -518 -508 -132 -177 -228 -392 -257
-575 -19 -115 -4 -278 36 -402 172 -529 877 -918 1834 -1013 33 -4 76 -8 95
-10 205 -23 706 -23 985 0 70 5 218 20 296 29 24 2 71 8 104 12 114 13 156 23
70 17 -44 -3 -87 -7 -95 -8 -144 -26 -880 -26 -1100 -1 -19 3 -62 7 -95 11
-77 8 -122 14 -154 20 -14 2 -44 7 -66 11 -22 3 -74 12 -115 20 -41 8 -86 17
-100 20 -57 11 -230 57 -305 80 -676 211 -1092 581 -1165 1038 -12 71 -9 255
4 316 3 14 8 34 10 46 19 97 92 274 158 388 37 64 161 243 177 256 3 3 23 26
44 52 45 56 39 50 151 166 49 50 88 92 85 92 -2 0 -38 -26 -79 -57z"/>
<path d="M3036 4362 c-123 -30 -235 -120 -288 -231 -29 -60 -32 -75 -32 -161
-1 -77 4 -104 21 -143 61 -132 162 -220 378 -328 196 -98 244 -143 235 -223
-8 -77 -113 -118 -225 -87 -51 14 -144 69 -192 115 l-38 36 -40 -43 c-22 -23
-73 -79 -113 -124 l-74 -83 23 -27 c76 -92 219 -179 337 -206 100 -23 271 -16
353 15 210 78 315 210 323 405 6 133 -29 226 -120 319 -79 81 -123 109 -306
198 -162 79 -208 113 -208 153 0 112 196 130 306 28 15 -14 68 -54 76 -57 6
-3 98 83 187 176 l45 46 -50 48 c-168 164 -386 227 -598 174z"/>
<path d="M1150 4325 c0 -7 6 -25 14 -41 8 -16 101 -240 206 -499 106 -258 215
-524 242 -590 27 -66 57 -140 67 -165 l18 -45 -134 -290 c-74 -159 -140 -305
-148 -322 l-14 -33 190 0 190 0 33 73 c19 39 53 113 76 162 23 50 61 133 85
185 24 52 68 148 99 214 31 65 56 119 56 121 0 2 29 64 65 140 36 75 65 138
65 140 0 2 22 50 49 107 27 57 71 153 99 213 28 61 71 155 97 210 26 55 54
116 63 135 8 19 39 85 68 146 28 62 55 121 58 132 7 19 3 20 -181 18 l-188 -1
-20 -40 c-11 -22 -32 -67 -47 -100 -142 -316 -150 -333 -216 -475 -22 -47 -61
-134 -87 -193 l-49 -108 -24 58 c-53 128 -185 440 -198 469 -11 24 -138 327
-160 380 -7 16 -374 15 -374 -1z"/>
<path d="M4790 4330 c0 -4 9 -27 19 -51 10 -24 144 -336 296 -694 152 -357
284 -665 292 -682 l15 -33 117 0 118 0 306 718 c168 394 309 724 312 733 5 14
-14 16 -179 16 l-185 1 -19 -42 c-11 -22 -72 -165 -136 -316 -65 -151 -126
-293 -136 -315 -10 -22 -30 -69 -45 -105 -15 -36 -30 -68 -34 -72 -3 -4 -55
108 -115 250 -60 141 -143 334 -184 428 l-74 171 -184 0 c-101 0 -184 -3 -184
-7z"/>
<path d="M3608 2023 c7 -3 16 -2 19 1 4 3 -2 6 -13 5 -11 0 -14 -3 -6 -6z"/>
</g>
</svg>
