<svg id="Black" xmlns="http://www.w3.org/2000/svg" viewBox="0 0 1000 530.8"><path d="M874.12,384.75C1160.4,186.29,955.65-59.92,467.87,20.1,871-33.8,1123.46,155.63,874.12,384.75ZM135.87,155.13C-150.4,353.6,54.36,599.93,542.13,519.91,138.89,573.66-113.6,384.38,135.87,155.13Zm25.89,30.64h55L272.3,319.55l61-133.78H388.5l-134,290.94H199.19l43.71-93.58L161.76,185.77Zm370.31,29.66L498.9,248.58c-13.31-13.45-25.87-19.84-36.55-19.84-6,0-10.93,1.14-14.58,4a12.11,12.11,0,0,0-5.14,9.68,14,14,0,0,0,3.65,7.53c2,2.51,7.53,5.66,16.07,9.66l19.48,10.05c20.72,10.05,34.79,20.49,42.34,31.41,7.65,10.44,11.29,22.86,11.29,37.3.39,18.59-6.41,34.68-20.49,47.11s-32.52,18.84-55.89,18.84c-30.9,0-55.9-12-74.75-36.18L417.25,332a72.31,72.31,0,0,0,22.12,18.07c8.4,4.4,15.7,6.91,22.1,6.91,7.65,0,13.31-1.62,17.71-5.25s6.41-7.32,6.41-11.7c0-8.41-7.67-16.46-23.24-24.5l-18.21-8.8c-34.54-17.32-51.76-39.31-51.76-65.55a55.77,55.77,0,0,1,19.1-42.85c13-12.19,29.89-17.84,50-17.84a81.78,81.78,0,0,1,39.45,8.8c12.05,6,22.36,15,31.15,26.14Zm53.87-108.54h53.54v78.88h31.77V231.5H639.48V399.32H585.94V231.5H558.71V185.77h27.23V106.89Zm106.67,78.88h54.76l53.77,125.76L854.9,185.77h54.39L818.48,399.32H783.93L692.61,185.77Z" transform="translate(-5 -4.6)"/></svg>