<?xml version="1.0" encoding="utf-8"?>
<!-- Generator: Adobe Illustrator 25.0.0, SVG Export Plug-In . SVG Version: 6.00 Build 0)  -->
<svg version="1.1" id="Layer_1" xmlns="http://www.w3.org/2000/svg" xmlns:xlink="http://www.w3.org/1999/xlink" x="0px" y="0px"
	 viewBox="0 0 117.5 117.5" style="enable-background:new 0 0 117.5 117.5;" xml:space="preserve">
<style type="text/css">
	.st0{fill:#333333;}
</style>
<g id="Layer_2_1_">
	<g id="Main_YSTV_Mono">
		<path class="st0" d="M101.3,67.6c33-22.9,9.4-51.2-46.8-42C100.9,19.4,129.9,41.2,101.3,67.6z M16.2,41.2
			c-33,22.9-9.4,51.3,46.8,42C16.6,89.4-12.4,67.6,16.2,41.2L16.2,41.2z M19.2,44.7h6.3L32,60.1l7-15.4h6.4L29.9,78.2h-6.4l5-10.8
			L19.2,44.7L19.2,44.7z M61.8,48.1L58,51.9c-1.5-1.5-2.9-2.3-4.2-2.3c-0.6,0-1.2,0.1-1.7,0.5c-0.4,0.3-0.6,0.7-0.6,1.1
			c0,0.3,0.2,0.6,0.4,0.9c0.6,0.5,1.2,0.9,1.9,1.1l2.2,1.1c1.9,0.8,3.6,2,4.9,3.6c0.9,1.2,1.4,2.8,1.3,4.3c0.1,2.1-0.8,4.1-2.4,5.4
			c-1.8,1.5-4.1,2.3-6.4,2.2c-3.4,0.1-6.6-1.5-8.6-4.2l3.8-4.2c0.7,0.8,1.5,1.5,2.5,2c0.8,0.5,1.6,0.7,2.5,0.8c0.7,0,1.5-0.2,2-0.6
			c0.4-0.3,0.7-0.8,0.7-1.4c0-1-0.9-1.9-2.7-2.8l-2.1-1c-4-2-6-4.5-6-7.5c0-1.9,0.8-3.7,2.2-4.9c1.6-1.4,3.6-2.1,5.8-2
			c1.6-0.1,3.1,0.3,4.5,1C59.6,45.9,60.9,46.9,61.8,48.1L61.8,48.1z M68.1,35.6h6.2v9.1h3.7V50h-3.7v19.3h-6.2V50h-3.1v-5.3h3.1
			V35.6z M80.3,44.7h6.3l6.2,14.5L99,44.7h6.3L94.8,69.3h-4L80.3,44.7L80.3,44.7z"/>
	</g>
</g>
</svg>
