<?xml version="1.0" encoding="UTF-8"?><svg id="a" xmlns="http://www.w3.org/2000/svg" viewBox="0 0 16 27.92"><defs><style>.h{fill:#fbfbfb;}.i{fill:#333;stroke:#227ee4;stroke-miterlimit:3.79;stroke-width:.95px;}</style></defs><g id="b"><g id="c"><path id="d" class="i" d="m2.39,2.96C1.19,4.24.45,6.09.48,7.84c.06,3.65,1.7,5.03,4.33,10.05.95,2.21,1.94,4.55,2.88,8.42.13.57.26,1.1.32,1.15.06.05.19-.49.32-1.06.94-3.87,1.93-6.21,2.88-8.41,2.63-5.02,4.27-6.4,4.33-10.05.03-1.75-.72-3.6-1.91-4.88-1.36-1.45-3.42-2.53-5.61-2.58S3.75,1.51,2.39,2.96h0Z"/></g></g><g id="e"><g id="f"><g id="g"><path class="h" d="m12.42,8.86c3.58-2.48,1.02-5.56-5.08-4.56,5.05-.67,8.2,1.7,5.08,4.56ZM3.18,5.99c-3.58,2.48-1.02,5.57,5.08,4.57C3.22,11.23.07,8.86,3.18,5.99h0Zm.32.38h.69l.7,1.68.76-1.67h.69l-1.68,3.64h-.69l.55-1.17-1.01-2.47h0Zm4.63.37l-.41.42c-.17-.17-.32-.25-.46-.25-.07,0-.13.01-.18.05-.04.03-.06.07-.06.12,0,.04.02.07.05.09.06.05.13.1.2.12l.24.12c.21.08.39.22.53.39.1.14.15.3.14.47,0,.23-.09.44-.26.59-.19.17-.44.25-.7.24-.37,0-.72-.16-.94-.45l.41-.45c.08.09.17.17.27.22.08.05.18.08.28.09.08,0,.16-.02.22-.06.05-.03.08-.09.08-.15,0-.11-.1-.21-.29-.31l-.23-.11c-.43-.21-.65-.49-.65-.82,0-.2.09-.4.24-.53.17-.15.4-.23.63-.22.17,0,.34.03.49.11.15.08.29.19.39.33h0Zm.68-1.36h.67v.99h.4v.57h-.4v2.1h-.67v-2.1h-.34v-.57h.34v-.99Zm1.33.99h.69l.67,1.57.67-1.57h.68l-1.14,2.67h-.43l-1.14-2.67h0Z"/></g></g></g></svg>