<?xml version="1.0" encoding="utf-8"?>
<!-- Generator: Adobe Illustrator 27.2.0, SVG Export Plug-In . SVG Version: 6.00 Build 0)  -->
<svg version="1.1"
	 id="svg3455" xmlns:sodipodi="http://sodipodi.sourceforge.net/DTD/sodipodi-0.dtd" xmlns:cc="http://creativecommons.org/ns#" xmlns:svg="http://www.w3.org/2000/svg" xmlns:dc="http://purl.org/dc/elements/1.1/" xmlns:inkscape="http://www.inkscape.org/namespaces/inkscape" xmlns:rdf="http://www.w3.org/1999/02/22-rdf-syntax-ns#" inkscape:version="0.91 r13725" sodipodi:docname="Map Pin.svg"
	 xmlns="http://www.w3.org/2000/svg" xmlns:xlink="http://www.w3.org/1999/xlink" x="0px" y="0px" viewBox="0 0 16.3 27.9"
	 style="enable-background:new 0 0 16.3 27.9;" xml:space="preserve">
<style type="text/css">
	.st0{fill:#333333;stroke:#227EE4;stroke-width:0.9485;stroke-miterlimit:3.7939;}
	.st1{fill:#FBFBFB;}
</style>
<sodipodi:namedview  bordercolor="#666666" borderopacity="1.0" fit-margin-bottom="0" fit-margin-left="0" fit-margin-right="0" fit-margin-top="0" id="base" inkscape:current-layer="layer1" inkscape:cx="8.4346812" inkscape:cy="14.715224" inkscape:document-units="px" inkscape:pageopacity="0.0" inkscape:pageshadow="2" inkscape:window-height="705" inkscape:window-maximized="1" inkscape:window-width="1024" inkscape:window-x="-4" inkscape:window-y="-4" inkscape:zoom="12.181359" pagecolor="#ffffff" showgrid="false">
	</sodipodi:namedview>
<g id="layer1" transform="translate(-814.59595,-274.38623)" inkscape:groupmode="layer" inkscape:label="Layer 1">
	<g id="g3477" transform="matrix(1.1855854,0,0,1.1855854,-151.17715,-57.3976)">
		<path id="path4337-3" inkscape:connector-curvature="0" sodipodi:nodetypes="sscccccsscs" class="st0" d="M816.7,282.3
			c-1,1.1-1.6,2.6-1.6,4.1c0.1,3.1,1.4,4.2,3.7,8.5c0.8,1.9,1.6,3.8,2.4,7.1c0.1,0.5,0.2,0.9,0.3,1c0,0,0.2-0.4,0.3-0.9
			c0.8-3.3,1.6-5.2,2.4-7.1c2.2-4.2,3.6-5.4,3.7-8.5c0-1.5-0.6-3-1.6-4.1c-1.1-1.2-2.9-2.1-4.7-2.2
			C819.6,280.2,817.9,281.1,816.7,282.3L816.7,282.3z"/>
	</g>
</g>
<g id="logo">
	<g id="Layer_2_00000072259092925320301790000006218501731849287815_">
		<g id="Main_YSTV_Mono_00000083794969412912439060000015143669975803642293_">
			<path class="st1" d="M12.6,8.9c3.6-2.5,1-5.6-5.1-4.6C12.5,3.6,15.7,6,12.6,8.9z M3.3,6c-3.6,2.5-1,5.6,5.1,4.6
				C3.4,11.2,0.2,8.9,3.3,6L3.3,6z M3.6,6.4h0.7L5,8l0.8-1.7h0.7L4.8,10H4.1l0.5-1.2L3.6,6.4L3.6,6.4z M8.3,6.7L7.9,7.2
				C7.7,7,7.5,6.9,7.4,6.9c-0.1,0-0.1,0-0.2,0.1c0,0-0.1,0.1-0.1,0.1c0,0,0,0.1,0,0.1c0.1,0.1,0.1,0.1,0.2,0.1l0.2,0.1
				C7.9,7.5,8,7.6,8.2,7.8C8.3,8,8.3,8.1,8.3,8.3c0,0.2-0.1,0.4-0.3,0.6C7.9,9,7.6,9.1,7.4,9.1C7,9.1,6.7,9,6.4,8.7l0.4-0.5
				C6.9,8.3,7,8.4,7.1,8.4c0.1,0.1,0.2,0.1,0.3,0.1c0.1,0,0.2,0,0.2-0.1c0,0,0.1-0.1,0.1-0.1c0-0.1-0.1-0.2-0.3-0.3L7.2,7.9
				C6.7,7.7,6.5,7.4,6.5,7.1c0-0.2,0.1-0.4,0.2-0.5c0.2-0.2,0.4-0.2,0.6-0.2c0.2,0,0.3,0,0.5,0.1C8,6.5,8.2,6.6,8.3,6.7L8.3,6.7z
				 M9,5.4h0.7v1H10v0.6H9.6V9H9V6.9H8.6V6.4H9V5.4z M10.3,6.4H11l0.7,1.6l0.7-1.6H13L11.9,9h-0.4L10.3,6.4L10.3,6.4z"/>
		</g>
	</g>
</g>
</svg>
