<svg xmlns="http://www.w3.org/2000/svg" viewBox="0 0 177.48 23.42"><defs><style>.cls-1{fill:#05c7d8;}.cls-2{fill:#333;}.cls-3{fill:none;stroke:#fbfbfb;stroke-miterlimit:10;stroke-width:0.75px;}.cls-4{fill:#fbfbfb;}</style></defs><g id="Layer_2" data-name="Layer 2"><g id="Main_Brands" data-name="Main Brands"><polygon class="cls-1" points="177.48 23.42 58.02 23.42 66.32 0 177.48 0 177.48 23.42"/><polygon class="cls-2" points="58.02 23.42 0 23.42 0 0 66.32 0 58.02 23.42"/><path class="cls-3" d="M69.35,4.71h9.2v3H72.81V11h5v3h-5v4.76H69.35Z"/><path class="cls-3" d="M89,18.71l-2.66-4.44h-2v4.44H80.93v-14h5.44a6.91,6.91,0,0,1,4.44,1.18,4,4,0,0,1,1.44,3.32,5,5,0,0,1-.69,2.71,4.46,4.46,0,0,1-1.93,1.65l3.22,5.14Zm-4.62-7.4h1.88a2.65,2.65,0,0,0,1.67-.49,1.76,1.76,0,0,0,.61-1.43A1.52,1.52,0,0,0,88,8.1a2.93,2.93,0,0,0-1.78-.43H84.39Z"/><path class="cls-3" d="M104.51,7.67H98.27v2.52h5.3v2.94h-5.3v2.62h6.24v3h-9.7v-14h9.7Z"/><path class="cls-3" d="M115,4.78a7.33,7.33,0,0,1,2.08,1l-1.46,2.58A6.28,6.28,0,0,0,114,7.53a5,5,0,0,0-1.69-.32,2.14,2.14,0,0,0-1.28.33,1,1,0,0,0-.46.89,1.06,1.06,0,0,0,.59,1,10.3,10.3,0,0,0,1.85.77,20.32,20.32,0,0,1,2.23.9,4.28,4.28,0,0,1,1.49,1.25,3.46,3.46,0,0,1,.64,2.15,4.1,4.1,0,0,1-.73,2.42,4.6,4.6,0,0,1-2,1.55,7.8,7.8,0,0,1-3,.53,11.27,11.27,0,0,1-2.69-.34,9,9,0,0,1-2.39-1l1-2.88a9,9,0,0,0,4.1,1.14,2.36,2.36,0,0,0,1.42-.36,1.13,1.13,0,0,0,.48-.94,1,1,0,0,0-.54-.91,7.21,7.21,0,0,0-1.68-.67,20,20,0,0,1-2.36-.87,4.07,4.07,0,0,1-1.52-1.26,3.64,3.64,0,0,1-.64-2.25,3.83,3.83,0,0,1,.68-2.29,4.18,4.18,0,0,1,1.9-1.48,7.24,7.24,0,0,1,2.82-.51A8.56,8.56,0,0,1,115,4.78Z"/><path class="cls-3" d="M132.37,4.71v14h-3.44V13.23h-5.82v5.48h-3.46v-14h3.46v5.56h5.82V4.71Z"/><path class="cls-3" d="M145.07,7.67h-6.24v2.52h5.3v2.94h-5.3v2.62h6.24v3h-9.7v-14h9.7Z"/><path class="cls-3" d="M156,18.71l-2.66-4.44h-2v4.44h-3.46v-14h5.44a6.91,6.91,0,0,1,4.44,1.18,4,4,0,0,1,1.44,3.32,5,5,0,0,1-.69,2.71,4.46,4.46,0,0,1-1.93,1.65l3.22,5.14Zm-4.62-7.4h1.88a2.65,2.65,0,0,0,1.67-.49,1.76,1.76,0,0,0,.61-1.43,1.52,1.52,0,0,0-.56-1.29,2.93,2.93,0,0,0-1.78-.43h-1.82Z"/><path class="cls-3" d="M169.41,4.78a7.33,7.33,0,0,1,2.08,1L170,8.37a6.28,6.28,0,0,0-1.63-.84,5,5,0,0,0-1.69-.32,2.14,2.14,0,0,0-1.28.33,1,1,0,0,0-.46.89,1.06,1.06,0,0,0,.59,1,10.3,10.3,0,0,0,1.85.77,20.32,20.32,0,0,1,2.23.9,4.28,4.28,0,0,1,1.49,1.25,3.46,3.46,0,0,1,.64,2.15,4.1,4.1,0,0,1-.73,2.42,4.6,4.6,0,0,1-2,1.55,7.8,7.8,0,0,1-3,.53,11.27,11.27,0,0,1-2.69-.34,9,9,0,0,1-2.39-1l1-2.88a9,9,0,0,0,4.1,1.14,2.36,2.36,0,0,0,1.42-.36,1.13,1.13,0,0,0,.48-.94,1,1,0,0,0-.54-.91,7.21,7.21,0,0,0-1.68-.67,20,20,0,0,1-2.36-.87,4.07,4.07,0,0,1-1.52-1.26,3.64,3.64,0,0,1-.64-2.25A3.83,3.83,0,0,1,162,6.36a4.18,4.18,0,0,1,1.9-1.48,7.24,7.24,0,0,1,2.82-.51A8.56,8.56,0,0,1,169.41,4.78Z"/><path class="cls-4" d="M10,13.13,5.17,4.71h4l2.72,5.06,2.74-5.06h3.74l-4.86,8.44v5.56H10Z"/><path class="cls-4" d="M27.23,4.78a7.33,7.33,0,0,1,2.08,1L27.85,8.37a6.12,6.12,0,0,0-1.63-.84,5.22,5.22,0,0,0-1.69-.32,2.16,2.16,0,0,0-1.28.33,1,1,0,0,0-.46.89,1.07,1.07,0,0,0,.59,1,10.3,10.3,0,0,0,1.85.77,20.32,20.32,0,0,1,2.23.9A4.3,4.3,0,0,1,29,12.3a3.39,3.39,0,0,1,.64,2.15,4,4,0,0,1-.73,2.42,4.53,4.53,0,0,1-2,1.55,7.76,7.76,0,0,1-2.95.53,11.33,11.33,0,0,1-2.69-.34,9,9,0,0,1-2.39-1l1-2.88A9,9,0,0,0,24,15.91a2.34,2.34,0,0,0,1.42-.36,1.12,1.12,0,0,0,.48-.94,1,1,0,0,0-.54-.91A7.69,7.69,0,0,0,23.63,13a20.65,20.65,0,0,1-2.36-.87,4,4,0,0,1-1.52-1.26,3.64,3.64,0,0,1-.64-2.25,3.92,3.92,0,0,1,.68-2.29,4.23,4.23,0,0,1,1.9-1.48,7.24,7.24,0,0,1,2.82-.51A8.86,8.86,0,0,1,27.23,4.78Z"/><path class="cls-4" d="M35.07,7.67H31v-3H42.61v3H38.53v11H35.07Z"/><path class="cls-4" d="M43.67,4.71h3.8l3.3,9.92L54,4.71h3.82l-5.34,14H49Z"/></g></g></svg>